<?xml version="1.0" encoding="UTF-8" standalone="no"?>
<!DOCTYPE svg PUBLIC "-//W3C//DTD SVG 1.1//EN" "http://www.w3.org/Graphics/SVG/1.1/DTD/svg11.dtd">
<svg width="100%" height="100%" viewBox="0 0 1182 1182" version="1.1" xmlns="http://www.w3.org/2000/svg" xmlns:xlink="http://www.w3.org/1999/xlink" xml:space="preserve" xmlns:serif="http://www.serif.com/" style="fill-rule:evenodd;clip-rule:evenodd;stroke-linejoin:round;stroke-miterlimit:2;">
    <g transform="matrix(1.349047,0,0,1.349047,-1717.449467,-1094.740118)">
        <path d="M2148.592,1030.369L2148.592,1468.123C2148.592,1588.924 2050.516,1687 1929.715,1687L1491.961,1687C1371.159,1687 1273.083,1588.924 1273.083,1468.123L1273.083,1030.369C1273.083,909.567 1371.159,811.491 1491.961,811.491L1929.715,811.491C2050.516,811.491 2148.592,909.567 2148.592,1030.369ZM1463.699,1138.687C1463.699,1138.687 1509.067,1076.896 1581.632,1071.048C1699.998,1061.51 1734.251,1113.973 1815.33,1113.105C1932.454,1111.853 1957.977,956.15 1957.977,956.15C1957.977,956.15 1935.431,992.571 1854.352,997.34C1773.273,1002.11 1752.884,955.533 1644.067,956.15C1493.174,957.007 1463.699,1138.687 1463.699,1138.687ZM1604.933,1112.602C1597.537,1112.709 1589.784,1113.072 1581.632,1113.729C1509.067,1119.576 1463.699,1181.367 1463.699,1181.367L1463.699,1541.913C1463.699,1541.913 1509.658,1542.347 1557.351,1542.347C1587.268,1542.347 1607.637,1510.404 1607.637,1485.979C1607.637,1450.656 1606.89,1350.827 1606.275,1274.6C1674.941,1279.269 1704.49,1311.05 1762.488,1310.429C1861.135,1309.374 1882.632,1178.235 1882.632,1178.235C1882.632,1178.235 1863.642,1208.91 1795.354,1212.927C1727.066,1216.944 1709.894,1177.715 1618.243,1178.235C1613.903,1178.26 1609.682,1178.462 1605.578,1178.83L1604.933,1112.602Z" style="fill:rgb(201,162,39);"/>
    </g>
</svg>
